<?xml version="1.0" encoding="UTF-8" standalone="no"?>
<!-- Generator: Adobe Illustrator 19.0.0, SVG Export Plug-In . SVG Version: 6.00 Build 0)  -->

<svg
   xmlns:dc="http://purl.org/dc/elements/1.1/"
   xmlns:cc="http://creativecommons.org/ns#"
   xmlns:rdf="http://www.w3.org/1999/02/22-rdf-syntax-ns#"
   xmlns:svg="http://www.w3.org/2000/svg"
   xmlns="http://www.w3.org/2000/svg"
   xmlns:sodipodi="http://sodipodi.sourceforge.net/DTD/sodipodi-0.dtd"
   xmlns:inkscape="http://www.inkscape.org/namespaces/inkscape"
   version="1.1"
   id="Capa_1"
   x="0px"
   y="0px"
   viewBox="0 0 36.653 36.140217"
   xml:space="preserve"
   inkscape:version="0.91 r13725"
   sodipodi:docname="user_avatar_play.svg"
   width="36.653"
   height="36.140217"><metadata
     id="metadata3690"><rdf:RDF><cc:Work
         rdf:about=""><dc:format>image/svg+xml</dc:format><dc:type
           rdf:resource="http://purl.org/dc/dcmitype/StillImage" /><dc:title></dc:title></cc:Work></rdf:RDF></metadata><defs
     id="defs3688" /><sodipodi:namedview
     pagecolor="#ffffff"
     bordercolor="#666666"
     borderopacity="1"
     objecttolerance="10"
     gridtolerance="10"
     guidetolerance="10"
     inkscape:pageopacity="0"
     inkscape:pageshadow="2"
     inkscape:window-width="1280"
     inkscape:window-height="776"
     id="namedview3686"
     showgrid="false"
     inkscape:zoom="8"
     inkscape:cx="41.816596"
     inkscape:cy="9.2484006"
     inkscape:window-x="0"
     inkscape:window-y="24"
     inkscape:window-maximized="1"
     inkscape:current-layer="g4761"
     fit-margin-top="0"
     fit-margin-left="0"
     fit-margin-right="0"
     fit-margin-bottom="0" /><g
     id="g3656"
     transform="translate(-181.02789,-133.15582)" /><g
     id="g3658"
     transform="translate(-181.02789,-133.15582)" /><g
     id="g3660"
     transform="translate(-181.02789,-133.15582)" /><g
     id="g3662"
     transform="translate(-181.02789,-133.15582)" /><g
     id="g3664"
     transform="translate(-181.02789,-133.15582)" /><g
     id="g3666"
     transform="translate(-181.02789,-133.15582)" /><g
     id="g3668"
     transform="translate(-181.02789,-133.15582)" /><g
     id="g3670"
     transform="translate(-181.02789,-133.15582)" /><g
     id="g3672"
     transform="translate(-181.02789,-133.15582)" /><g
     id="g3674"
     transform="translate(-181.02789,-133.15582)" /><g
     id="g3676"
     transform="translate(-181.02789,-133.15582)" /><g
     id="g3678"
     transform="translate(-181.02789,-133.15582)" /><g
     id="g3680"
     transform="translate(-181.02789,-133.15582)" /><g
     id="g3682"
     transform="translate(-181.02789,-133.15582)" /><g
     id="g3684"
     transform="translate(-181.02789,-133.15582)" /><g
     id="g4761"
     transform="matrix(0.99999989,-4.6054097e-4,4.6054097e-4,0.99999989,-181.07842,-133.07936)"
     style="fill:#00112b;fill-opacity:1"><g
       id="g4261"
       transform="matrix(0.83290975,0,0,0.83290975,32.223346,24.437574)"><rect
         transform="matrix(0.99999989,4.6054097e-4,-4.6054097e-4,0.99999989,0,0)"
         y="130.45427"
         x="178.7094"
         height="43.25"
         width="44"
         id="rect3446"
         style="fill:#000000;fill-opacity:1" /><path
         style="fill:#00ffff;fill-opacity:1;stroke-width:0.88599998;stroke-miterlimit:4;stroke-dasharray:none"
         id="path4757"
         sodipodi:type="arc"
         sodipodi:cx="-68.4524"
         sodipodi:cy="272.5769"
         sodipodi:rx="16.790974"
         sodipodi:ry="20.157452"
         sodipodi:start="0"
         sodipodi:end="5.2290763"
         d="m -51.661427,272.5769 a 16.790974,20.157452 0 0 1 -12.417132,19.46156 16.790974,20.157452 0 0 1 -18.886152,-9.32256 16.790974,20.157452 0 0 1 2.577914,-24.31839 16.790974,20.157452 0 0 1 20.229182,-3.34671 l -8.294785,17.5261 z"
         transform="matrix(0.70685231,-0.70736116,0.91320422,0.40750221,0,0)" /><path
         transform="matrix(1,6.5353332e-6,6.6294082e-6,1,0,0)"
         style="fill:#00ffff;fill-opacity:1;stroke-width:0.88599998;stroke-miterlimit:4;stroke-dasharray:none"
         id="path4759"
         sodipodi:type="arc"
         sodipodi:cx="201.81885"
         sodipodi:cy="140.13255"
         sodipodi:rx="12.979284"
         sodipodi:ry="9.5485821"
         sodipodi:start="0"
         sodipodi:end="5.802705"
         d="m 214.79813,140.13255 a 12.979284,9.5485821 0 0 1 -11.42396,9.47978 12.979284,9.5485821 0 0 1 -14.16185,-7.20783 12.979284,9.5485821 0 0 1 8.02988,-11.20722 12.979284,9.5485821 0 0 1 16.08633,4.52187"
         sodipodi:open="true" /></g></g></svg>